<?xml version="1.0" encoding="utf-8"?>
<svg version="1.1" xmlns:xlink="http://www.w3.org/1999/xlink" width="16px" height="16px" xmlns="http://www.w3.org/2000/svg">
  <g transform="matrix(1 0 0 1 -274 -81 )">
    <path d="M 8.799999999999967 7.199999999999974  L 8.79999999999997 3.999999999999995  L 7.199999999999978 3.9999999999999947  L 7.199999999999974 7.199999999999974  L 3.9999999999999805 7.199999999999984  L 3.9999999999999987 8.799999999999994  L 7.199999999999993 8.799999999999985  L 7.199999999999989 11.999999999999964  L 8.799999999999981 11.999999999999964  L 8.799999999999985 8.799999999999985  L 11.999999999999979 8.799999999999976  L 11.99999999999996 7.199999999999964  L 8.799999999999967 7.199999999999974  Z M 15.99999999999996 7.99999999999998  C 15.999999999999964 3.579999999999991  12.419999999999964 0  7.99999999999999 0  C 3.5799999999999947 0  0 3.5799999999999903  0 7.9999999999999805  C 0 12.419999999999948  3.579999999999976 15.99999999999995  7.99999999999997 15.99999999999995  C 12.419999999999966 15.99999999999995  15.999999999999954 12.41999999999997  15.99999999999996 7.99999999999998  Z M 14.399999999999967 7.999999999999979  C 14.399999999999963 11.527999999999974  11.52799999999997 14.39999999999996  7.999999999999972 14.39999999999996  C 4.471999999999975 14.39999999999996  1.5999999999999872 11.527999999999972  1.599999999999992 7.9999999999999805  C 1.599999999999996 4.471999999999987  4.471999999999991 1.5999999999999999  7.999999999999988 1.6  C 11.527999999999984 1.5999999999999996  14.399999999999972 4.471999999999987  14.399999999999967 7.999999999999979  Z " fill-rule="nonzero" fill="#999999" stroke="none" transform="matrix(1 0 0 1 274 81 )" />
  </g>
</svg>