<?xml version="1.0" encoding="utf-8"?>
<svg version="1.1" xmlns:xlink="http://www.w3.org/1999/xlink" width="16px" height="16px" xmlns="http://www.w3.org/2000/svg">
  <g transform="matrix(1 0 0 1 -345 -15 )">
    <path d="M 16 8  C 16 3.5799999999999983  12.420000000000002 0  8 0  C 3.5799999999999983 0  0 3.5799999999999983  0 8  C 0 12.420000000000002  3.5799999999999983 16  8 16  C 12.420000000000002 16  16 12.420000000000002  16 8  Z M 8.799999999999997 7.200000000000003  L 8.799999999999997 12  L 7.200000000000003 12  L 7.200000000000003 7.200000000000003  L 8.799999999999997 7.200000000000003  Z M 8.799999999999997 4  L 8.799999999999997 5.599999999999994  L 7.200000000000003 5.599999999999994  L 7.200000000000003 4  L 8.799999999999997 4  Z " fill-rule="nonzero" fill="#ffffff" stroke="none" transform="matrix(1 0 0 1 345 15 )" />
  </g>
</svg>