<?xml version="1.0" encoding="utf-8"?>
<svg version="1.1" xmlns:xlink="http://www.w3.org/1999/xlink" width="14px" height="14px" xmlns="http://www.w3.org/2000/svg">
  <g transform="matrix(1 0 0 1 -30 -16 )">
    <path d="M 14 12.807318467695826  L 10.005717552887361 8.805031446540866  L 9.369353916523732 8.805031446540866  L 9.149228130360218 8.584905660377352  C 9.933676386506573 7.676386506575184  10.40594625500286 6.495711835334479  10.40594625500286 5.20297312750143  C 10.40594625500286 2.329331046312177  8.076615208690683 0  5.20297312750143 0  C 2.329331046312177 0  0 2.329331046312177  0 5.20297312750143  C 0 8.076615208690683  2.329331046312177 10.40594625500286  5.20297312750143 10.40594625500286  C 6.495711835334479 10.40594625500286  7.676386506575184 9.933676386506573  8.584905660377352 9.153230417381366  L 8.805031446540891 9.37335620354488  L 8.805031446540891 10.005717552887361  L 12.807318467695826 14  L 14 12.807318467695826  Z M 8.805031446540891 5.20297312750143  C 8.805031446540891 7.192109777015428  7.192109777015428 8.805031446540866  5.20297312750143 8.805031446540866  C 3.2138364779874316 8.805031446540866  1.6009148084619689 7.192109777015428  1.6009148084619689 5.20297312750143  C 1.6009148084619689 3.2138364779874316  3.2138364779874316 1.6009148084619689  5.20297312750143 1.6009148084619689  C 7.192109777015428 1.6009148084619689  8.805031446540891 3.2138364779874316  8.805031446540891 5.20297312750143  Z " fill-rule="nonzero" fill="#333333" stroke="none" transform="matrix(1 0 0 1 30 16 )" />
  </g>
</svg>